<svg xmlns="http://www.w3.org/2000/svg" viewBox="0 0 24 24" width="100%" height="100%">
  <path fill="#FFF" d="M12.012 3c-4.965 0-9.011 4.05-9.011 9.011 0 1.587.413 3.134 1.2 4.499L3 21l4.65-1.22c1.318.718 2.802 1.094 4.356 1.096h.004c4.965 0 9.011-4.05 9.011-9.011 0-2.404-.936-4.664-2.634-6.363s-3.96-2.634-6.365-2.634z"/>
  <path fill="#25D366" d="M12.012 4.417c-4.186 0-7.593 3.407-7.593 7.593 0 1.341.348 2.646 1.011 3.797l-.64 2.338 2.392-.627c1.111.606 2.361.925 3.626.927h.003c4.185 0 7.593-3.407 7.593-7.593 0-2.029-.79-3.936-2.223-5.37-1.433-1.433-3.34-2.223-5.368-2.223z"/>
  <path fill="#FFF" d="M15.165 13.861c-.23-.115-1.354-.668-1.563-.744-.208-.076-.36-.115-.512.115-.152.23-.588.744-.721.897-.133.152-.266.172-.496.057-.23-.115-.97-.358-1.848-1.142-.684-.61-1.145-1.364-1.279-1.595-.133-.23-.014-.354.101-.469.103-.104.23-.268.345-.402.115-.134.153-.23.23-.383.077-.153.038-.287-.019-.402-.057-.115-.512-1.235-.702-1.694-.185-.445-.373-.385-.512-.392-.132-.007-.284-.008-.437-.008a.84.84 0 0 0-.608.287c-.208.23-.796.78-.796 1.902s.815 2.203.929 2.356c.114.153 1.603 2.447 3.884 3.432.543.234.966.373 1.295.478.545.173 1.042.149 1.434.09.438-.065 1.354-.553 1.544-1.087.19-.534.19-1.002.133-1.097-.057-.096-.209-.153-.439-.268z"/>
</svg>
